<svg width="150" height="166" xmlns="http://www.w3.org/2000/svg" xmlns:xlink="http://www.w3.org/1999/xlink" xml:space="preserve" overflow="hidden"><defs><clipPath id="clip0"><rect x="0" y="0" width="150" height="166"/></clipPath></defs><g clip-path="url(#clip0)"><path d="M-3.52892 3.52892-3.52892-162.33 146.45-162.33 146.45 3.52892-3.52892 3.52892Z" fill="#FFFFFF" transform="matrix(1 0 0 1.00085 3.53946 162.468)"/><path d="M111.161-142.921C111.161-134.151 100.496-127.041 87.3407-127.041 74.1851-127.041 63.5205-134.151 63.5205-142.921 63.5205-151.691 74.1851-158.801 87.3407-158.801 100.496-158.801 111.161-151.691 111.161-142.921Z" stroke="#000000" stroke-width="0.882229" fill="#FFFFFF" transform="matrix(1 0 0 1.00085 3.53946 162.468)"/><text font-family="Times New Roman,Times New Roman_MSFontService,sans-serif" font-weight="400" font-size="14" transform="matrix(0.882229 0 0 0.882979 86.9101 23)">A</text><path d="M79.4006-79.4006C79.4006-70.6303 68.7359-63.5205 55.5804-63.5205 42.4249-63.5205 31.7602-70.6303 31.7602-79.4006 31.7602-88.171 42.4249-95.2807 55.5804-95.2807 68.7359-95.2807 79.4006-88.171 79.4006-79.4006Z" stroke="#000000" stroke-width="0.882229" fill="#808080" transform="matrix(1 0 0 1.00085 3.53946 162.468)"/><text font-family="Times New Roman,Times New Roman_MSFontService,sans-serif" font-weight="400" font-size="14" transform="matrix(0.882229 0 0 0.882979 54.7087 87)">O</text><path d="M79.9741-127.711C76.2422-120.468 71.6282-111.487 67.4199-103.3" stroke="#000000" stroke-width="0.882229" fill="none" transform="matrix(1 0 0 1.00085 3.53946 162.468)"/><path d="M70.296-102.153 63.5205-95.713 64.8085-104.976 70.296-102.153Z" stroke="#000000" stroke-width="0.882229" transform="matrix(1 0 0 1.00085 3.53946 162.468)"/><path d="M111.161-15.8801C111.161-7.10977 100.496 0 87.3407 0 74.1851 0 63.5205-7.10977 63.5205-15.8801 63.5205-24.6505 74.1851-31.7602 87.3407-31.7602 100.496-31.7602 111.161-24.6505 111.161-15.8801Z" stroke="#000000" stroke-width="0.882229" fill="#FFFFFF" transform="matrix(1 0 0 1.00085 3.53946 162.468)"/><text font-family="Times New Roman,Times New Roman_MSFontService,sans-serif" font-weight="400" font-size="14" transform="matrix(0.882229 0 0 0.882979 83.3812 150)">O</text><text font-family="Times New Roman,Times New Roman_MSFontService,sans-serif" font-weight="400" font-size="14" transform="matrix(0.882229 0 0 0.882979 92.2035 150)">*</text><path d="M62.947-64.191C66.6789-56.9479 71.2929-47.9668 75.5012-39.7797" stroke="#000000" stroke-width="0.882229" fill="none" transform="matrix(1 0 0 1.00085 3.53946 162.468)"/><path d="M78.1125-41.4559 79.4006-32.1925 72.6251-38.6328 78.1125-41.4559Z" stroke="#000000" stroke-width="0.882229" transform="matrix(1 0 0 1.00085 3.53946 162.468)"/><path d="M47.6404-142.921C47.6404-134.151 36.9757-127.041 23.8202-127.041 10.6647-127.041 0-134.151 0-142.921-6.26861e-15-151.691 10.6647-158.801 23.8202-158.801 36.9757-158.801 47.6404-151.691 47.6404-142.921Z" stroke="#000000" stroke-width="0.882229" fill="#FFFFFF" transform="matrix(1 0 0 1.00085 3.53946 162.468)"/><text font-family="Times New Roman,Times New Roman_MSFontService,sans-serif" font-weight="400" font-size="14" transform="matrix(0.882229 0 0 0.882979 22.9485 23)">G</text><path d="M31.1868-127.711C34.9186-120.468 39.5327-111.487 43.7409-103.3" stroke="#000000" stroke-width="0.882229" fill="none" transform="matrix(1 0 0 1.00085 3.53946 162.468)"/><path d="M46.3523-104.976 47.6404-95.713 40.8648-102.153 46.3523-104.976Z" stroke="#000000" stroke-width="0.882229" transform="matrix(1 0 0 1.00085 3.53946 162.468)"/><path d="M142.921-79.4006C142.921-70.6303 132.256-63.5205 119.101-63.5205 105.945-63.5205 95.2807-70.6303 95.2807-79.4006 95.2807-88.171 105.945-95.2807 119.101-95.2807 132.256-95.2807 142.921-88.171 142.921-79.4006Z" stroke="#000000" stroke-width="0.882229" fill="#FFFFFF" transform="matrix(1 0 0 1.00085 3.53946 162.468)"/><text font-family="Times New Roman,Times New Roman_MSFontService,sans-serif" font-weight="400" font-size="14" transform="matrix(0.882229 0 0 0.882979 112.689 86)">M</text><text font-family="Times New Roman,Times New Roman_MSFontService,sans-serif" font-weight="400" font-size="14" transform="matrix(0.882229 0 0 0.882979 123.673 86)">O</text><path d="M111.734-64.191C108.002-56.9479 103.388-47.9668 99.1802-39.7797" stroke="#000000" stroke-width="0.882229" fill="none" transform="matrix(1 0 0 1.00085 3.53946 162.468)"/><path d="M102.056-38.6328 95.2807-32.1925 96.5688-41.4559 102.056-38.6328Z" stroke="#000000" stroke-width="0.882229" transform="matrix(1 0 0 1.00085 3.53946 162.468)"/></g></svg>