<svg width="118" height="166" xmlns="http://www.w3.org/2000/svg" xmlns:xlink="http://www.w3.org/1999/xlink" xml:space="preserve" overflow="hidden"><defs><clipPath id="clip0"><rect x="0" y="0" width="118" height="166"/></clipPath></defs><g clip-path="url(#clip0)"><path d="M-3.5205 3.5205-3.5205-161.943 114.416-161.943 114.416 3.5205-3.5205 3.5205Z" fill="#FFFFFF" transform="matrix(1 0 0 1.00324 3.55206 162.468)"/><path d="M110.896-142.58C110.896-133.831 100.257-126.738 87.1325-126.738 74.0083-126.738 63.3691-133.831 63.3691-142.58 63.3691-151.33 74.0083-158.423 87.1325-158.423 100.257-158.423 110.896-151.33 110.896-142.58Z" stroke="#000000" stroke-width="0.880126" fill="#FFFFFF" transform="matrix(1 0 0 1.00324 3.55206 162.468)"/><text font-family="Times New Roman,Times New Roman_MSFontService,sans-serif" font-weight="400" font-size="14" transform="matrix(0.880126 0 0 0.882979 86.724 23)">A</text><path d="M47.5268-79.2113C47.5268-70.4619 36.8876-63.3691 23.7634-63.3691 10.6392-63.3691 0-70.4619 0-79.2113-6.25367e-15-87.9608 10.6392-95.0536 23.7634-95.0536 36.8876-95.0536 47.5268-87.9608 47.5268-79.2113Z" stroke="#000000" stroke-width="0.880126" fill="#808080" transform="matrix(1 0 0 1.00324 3.55206 162.468)"/><text font-family="Times New Roman,Times New Roman_MSFontService,sans-serif" font-weight="400" font-size="14" transform="matrix(0.880126 0 0 0.882979 22.9148 87)">O</text><path d="M74.001-128.938C65.3318-120.507 53.8109-109.303 43.9799-99.7535" stroke="#000000" stroke-width="0.880126" fill="none" transform="matrix(1 0 0 1.00324 3.55206 162.468)"/><path d="M46.2858-97.694 37.8278-93.7686 41.9908-102.112 46.2858-97.694Z" stroke="#000000" stroke-width="0.880126" transform="matrix(1 0 0 1.00324 3.55206 162.468)"/><path d="M110.896-79.2113C110.896-70.4619 100.257-63.3691 87.1325-63.3691 74.0083-63.3691 63.3691-70.4619 63.3691-79.2113 63.3691-87.9608 74.0083-95.0536 87.1325-95.0536 100.257-95.0536 110.896-87.9608 110.896-79.2113Z" stroke="#000000" stroke-width="0.880126" fill="#FFFFFF" transform="matrix(1 0 0 1.00324 3.55206 162.468)"/><text font-family="Times New Roman,Times New Roman_MSFontService,sans-serif" font-weight="400" font-size="14" transform="matrix(0.880126 0 0 0.882979 80.7567 86)">M</text><text font-family="Times New Roman,Times New Roman_MSFontService,sans-serif" font-weight="400" font-size="14" transform="matrix(0.880126 0 0 0.882979 91.7143 86)">O</text><path d="M87.1325-126.474C87.1325-120.058 87.1325-112.418 87.1325-105.21" stroke="#000000" stroke-width="0.880126" fill="none" transform="matrix(1 0 0 1.00324 3.55206 162.468)"/><path d="M90.2129-105.281 87.1325-96.4794 84.052-105.281 90.2129-105.281Z" stroke="#000000" stroke-width="0.880126" transform="matrix(1 0 0 1.00324 3.55206 162.468)"/><path d="M47.7732-79.2113C49.5335-79.2113 51.2937-79.2113 53.0628-79.2113" stroke="#000000" stroke-width="0.880126" fill="none" transform="matrix(1 0 0 1.00324 3.55206 162.468)"/><path d="M53.0188-82.2918 61.82-79.2113 53.0188-76.1309 53.0188-82.2918Z" stroke="#000000" stroke-width="0.880126" transform="matrix(1 0 0 1.00324 3.55206 162.468)"/><path d="M79.2113-15.8423C79.2113-7.09282 68.5721 0 55.4479 0 42.3238 0 31.6845-7.09282 31.6845-15.8423 31.6845-24.5917 42.3238-31.6845 55.4479-31.6845 68.5721-31.6845 79.2113-24.5917 79.2113-15.8423Z" stroke="#000000" stroke-width="0.880126" fill="#FFFFFF" transform="matrix(1 0 0 1.00324 3.55206 162.468)"/><text font-family="Times New Roman,Times New Roman_MSFontService,sans-serif" font-weight="400" font-size="14" transform="matrix(0.880126 0 0 0.882979 51.5189 150)">O</text><text font-family="Times New Roman,Times New Roman_MSFontService,sans-serif" font-weight="400" font-size="14" transform="matrix(0.880126 0 0 0.882979 60.3202 150)">*</text><path d="M31.1125-64.038C34.8354-56.8121 39.4384-47.8525 43.6367-39.6849" stroke="#000000" stroke-width="0.880126" fill="none" transform="matrix(1 0 0 1.00324 3.55206 162.468)"/><path d="M46.2418-41.3571 47.5268-32.1158 40.7674-38.5407 46.2418-41.3571Z" stroke="#000000" stroke-width="0.880126" transform="matrix(1 0 0 1.00324 3.55206 162.468)"/><path d="M47.5268-142.58C47.5268-133.831 36.8876-126.738 23.7634-126.738 10.6392-126.738 0-133.831 0-142.58-6.25367e-15-151.33 10.6392-158.423 23.7634-158.423 36.8876-158.423 47.5268-151.33 47.5268-142.58Z" stroke="#000000" stroke-width="0.880126" fill="#FFFFFF" transform="matrix(1 0 0 1.00324 3.55206 162.468)"/><text font-family="Times New Roman,Times New Roman_MSFontService,sans-serif" font-weight="400" font-size="14" transform="matrix(0.880126 0 0 0.882979 22.9148 23)">G</text><path d="M23.7634-126.474C23.7634-120.058 23.7634-112.418 23.7634-105.21" stroke="#000000" stroke-width="0.880126" fill="none" transform="matrix(1 0 0 1.00324 3.55206 162.468)"/><path d="M26.8438-105.281 23.7634-96.4794 20.683-105.281 26.8438-105.281Z" stroke="#000000" stroke-width="0.880126" transform="matrix(1 0 0 1.00324 3.55206 162.468)"/><path d="M79.7834-64.038C76.0605-56.8121 71.4574-47.8525 67.2592-39.6849" stroke="#000000" stroke-width="0.880126" fill="none" transform="matrix(1 0 0 1.00324 3.55206 162.468)"/><path d="M70.1284-38.5407 63.3691-32.1158 64.6541-41.3571 70.1284-38.5407Z" stroke="#000000" stroke-width="0.880126" transform="matrix(1 0 0 1.00324 3.55206 162.468)"/></g></svg>