<svg width="141" height="165" xmlns="http://www.w3.org/2000/svg" xmlns:xlink="http://www.w3.org/1999/xlink" xml:space="preserve" overflow="hidden"><defs><clipPath id="clip0"><rect x="0" y="0" width="141" height="165"/></clipPath></defs><g clip-path="url(#clip0)"><path d="M-3.31718 3.31718-3.31718-152.59 137.663-152.59 137.663 3.31718-3.31718 3.31718Z" fill="#FFFFFF" transform="matrix(1 0 0 1.05832 3.32709 161.489)"/><path d="M44.7819-134.346C44.7819-126.102 34.7572-119.419 22.391-119.419 10.0248-119.419 0-126.102 0-134.346-5.8925e-15-142.59 10.0248-149.273 22.391-149.273 34.7572-149.273 44.7819-142.59 44.7819-134.346Z" stroke="#000000" stroke-width="0.829295" fill="#FFFFFF" transform="matrix(1 0 0 1.05832 3.32709 161.489)"/><text font-family="Times New Roman,Times New Roman_MSFontService,sans-serif" font-weight="400" font-size="14" transform="matrix(0.829295 0 0 0.87766 21.5716 23)">G</text><path d="M74.6366-74.6366C74.6366-66.3924 64.6118-59.7093 52.2456-59.7093 39.8794-59.7093 29.8546-66.3924 29.8546-74.6366 29.8546-82.8807 39.8794-89.5639 52.2456-89.5639 64.6118-89.5639 74.6366-82.8807 74.6366-74.6366Z" stroke="#000000" stroke-width="0.829295" fill="#808080" transform="matrix(1 0 0 1.05832 3.32709 161.489)"/><text font-family="Times New Roman,Times New Roman_MSFontService,sans-serif" font-weight="400" font-size="14" transform="matrix(0.829295 0 0 0.87766 51.4262 86)">O</text><path d="M29.3156-120.049C32.8235-113.24 37.1607-104.798 41.1165-97.1022" stroke="#000000" stroke-width="0.829295" fill="none" transform="matrix(1 0 0 1.05832 3.32709 161.489)"/><path d="M43.5712-98.6778 44.7819-89.9702 38.413-96.0241 43.5712-98.6778Z" stroke="#000000" stroke-width="0.829295" transform="matrix(1 0 0 1.05832 3.32709 161.489)"/><path d="M104.491-134.346C104.491-126.102 94.4664-119.419 82.1002-119.419 69.734-119.419 59.7093-126.102 59.7093-134.346 59.7093-142.59 69.734-149.273 82.1002-149.273 94.4664-149.273 104.491-142.59 104.491-134.346Z" stroke="#000000" stroke-width="0.829295" fill="#FFFFFF" transform="matrix(1 0 0 1.05832 3.32709 161.489)"/><text font-family="Times New Roman,Times New Roman_MSFontService,sans-serif" font-weight="400" font-size="14" transform="matrix(0.829295 0 0 0.87766 81.6955 23)">A</text><path d="M104.491-14.9273C104.491-6.68319 94.4664 0 82.1002 0 69.734 0 59.7093-6.68319 59.7093-14.9273 59.7093-23.1714 69.734-29.8546 82.1002-29.8546 94.4664-29.8546 104.491-23.1714 104.491-14.9273Z" stroke="#000000" stroke-width="0.829295" fill="#FFFFFF" transform="matrix(1 0 0 1.05832 3.32709 161.489)"/><text font-family="Times New Roman,Times New Roman_MSFontService,sans-serif" font-weight="400" font-size="14" transform="matrix(0.829295 0 0 0.87766 78.3783 149)">O</text><text font-family="Times New Roman,Times New Roman_MSFontService,sans-serif" font-weight="400" font-size="14" transform="matrix(0.829295 0 0 0.87766 86.6713 149)">*</text><path d="M59.1702-60.3395C62.6781-53.531 67.0153-45.0888 70.9711-37.3929" stroke="#000000" stroke-width="0.829295" fill="none" transform="matrix(1 0 0 1.05832 3.32709 161.489)"/><path d="M73.4258-38.9686 74.6366-30.261 68.2676-36.3148 73.4258-38.9686Z" stroke="#000000" stroke-width="0.829295" transform="matrix(1 0 0 1.05832 3.32709 161.489)"/><path d="M134.346-74.6366C134.346-66.3924 124.321-59.7093 111.955-59.7093 99.5887-59.7093 89.5639-66.3924 89.5639-74.6366 89.5639-82.8807 99.5887-89.5639 111.955-89.5639 124.321-89.5639 134.346-82.8807 134.346-74.6366Z" stroke="#000000" stroke-width="0.829295" fill="#FFFFFF" transform="matrix(1 0 0 1.05832 3.32709 161.489)"/><text font-family="Times New Roman,Times New Roman_MSFontService,sans-serif" font-weight="400" font-size="14" transform="matrix(0.829295 0 0 0.87766 105.927 85)">M</text><text font-family="Times New Roman,Times New Roman_MSFontService,sans-serif" font-weight="400" font-size="14" transform="matrix(0.829295 0 0 0.87766 116.252 85)">O</text><path d="M74.8688-74.6366C76.5274-74.6366 78.1859-74.6366 79.8528-74.6366" stroke="#000000" stroke-width="0.829295" fill="none" transform="matrix(1 0 0 1.05832 3.32709 161.489)"/><path d="M79.8114-77.5391 88.1043-74.6366 79.8114-71.734 79.8114-77.5391Z" stroke="#000000" stroke-width="0.829295" transform="matrix(1 0 0 1.05832 3.32709 161.489)"/><path d="M75.1756-120.049C71.6677-113.24 67.3305-104.798 63.3747-97.1022" stroke="#000000" stroke-width="0.829295" fill="none" transform="matrix(1 0 0 1.05832 3.32709 161.489)"/><path d="M66.0782-96.0241 59.7093-89.9702 60.92-98.6778 66.0782-96.0241Z" stroke="#000000" stroke-width="0.829295" transform="matrix(1 0 0 1.05832 3.32709 161.489)"/><path d="M105.03-60.3395C101.522-53.531 97.1851-45.0888 93.2294-37.3929" stroke="#000000" stroke-width="0.829295" fill="none" transform="matrix(1 0 0 1.05832 3.32709 161.489)"/><path d="M95.9329-36.3148 89.5639-30.261 90.7747-38.9686 95.9329-36.3148Z" stroke="#000000" stroke-width="0.829295" transform="matrix(1 0 0 1.05832 3.32709 161.489)"/></g></svg>